<?xml version="1.0" encoding="UTF-8" standalone="no"?>
<!-- Created with Inkscape (http://www.inkscape.org/) -->

<svg
   width="60.304302mm"
   height="74.292915mm"
   viewBox="0 0 60.304302 74.292915"
   version="1.1"
   id="svg1"
   inkscape:version="1.3 (0e150ed6c4, 2023-07-21)"
   sodipodi:docname="anemo_die.svg"
   xmlns:inkscape="http://www.inkscape.org/namespaces/inkscape"
   xmlns:sodipodi="http://sodipodi.sourceforge.net/DTD/sodipodi-0.dtd"
   xmlns="http://www.w3.org/2000/svg"
   xmlns:svg="http://www.w3.org/2000/svg">
  <sodipodi:namedview
     id="namedview1"
     pagecolor="#ffffff"
     bordercolor="#999999"
     borderopacity="1"
     inkscape:showpageshadow="2"
     inkscape:pageopacity="0"
     inkscape:pagecheckerboard="0"
     inkscape:deskcolor="#d1d1d1"
     inkscape:document-units="mm"
     inkscape:zoom="1.9578168"
     inkscape:cx="222.18626"
     inkscape:cy="141.22874"
     inkscape:window-width="1902"
     inkscape:window-height="973"
     inkscape:window-x="0"
     inkscape:window-y="0"
     inkscape:window-maximized="0"
     inkscape:current-layer="layer1" />
  <defs
     id="defs1" />
  <g
     inkscape:label="Layer 1"
     inkscape:groupmode="layer"
     id="layer1"
     transform="translate(-45.853528,-46.600531)">
    <path
       id="rect1"
       style="fill:#1bcbc8;fill-opacity:1;stroke:#a0e9e8;stroke-width:3;stroke-dasharray:none;stroke-opacity:1"
       d="M 47.353528,65.930411 76.385094,48.360137 104.65783,65.930411 V 103.04464 L 75.439094,119.17209 47.353528,103.04464 Z"
       sodipodi:nodetypes="ccccccc" />
    <path
       sodipodi:type="spiral"
       style="fill:none;fill-rule:evenodd;stroke:#ffffff;stroke-width:7.82362;stroke-dasharray:none;stroke-opacity:0.585106"
       id="path2"
       sodipodi:cx="136.88718"
       sodipodi:cy="155.78577"
       sodipodi:expansion="1"
       sodipodi:revolution="3"
       sodipodi:radius="63.582523"
       sodipodi:argument="-20.833683"
       sodipodi:t0="0"
       d="m 136.88718,155.78577 c -1.28047,-2.91947 3.30364,-3.16641 4.85234,-2.12823 4.19688,2.81342 2.63872,8.98734 -0.5959,11.83291 -5.78598,5.09007 -14.64026,2.49557 -18.81347,-3.32002 -6.12436,-8.53459 -2.37924,-20.3811 6.04414,-25.79404 11.22703,-7.21459 26.15463,-2.2762 32.7746,8.76826 8.33057,13.89833 2.18043,31.94409 -11.49238,39.75517 -16.5596,9.46027 -37.74259,2.08893 -46.73573,-14.21649 -10.598109,-19.21538 -2.00012,-43.54676 16.94061,-53.71631 21.86784,-11.74114 49.35469,-1.9131 60.69687,19.66474 12.88771,24.51812 1.82735,55.16527 -22.38886,67.67744 -27.16692,14.03676 -60.977766,1.74249 -74.657996,-25.11298 C 68.323755,149.38155 81.853083,112.40449 111.3485,97.557651"
       transform="matrix(0.32425843,0,0,0.32425843,31.948618,33.999424)" />
  </g>
</svg>
