<?xml version="1.0" encoding="UTF-8" standalone="no"?>
<!-- Created with Inkscape (http://www.inkscape.org/) -->

<svg
   width="42.085289mm"
   height="42.562263mm"
   viewBox="0 0 42.085289 42.562263"
   version="1.1"
   id="svg1"
   inkscape:version="1.3 (0e150ed6c4, 2023-07-21)"
   sodipodi:docname="dendro.svg"
   xmlns:inkscape="http://www.inkscape.org/namespaces/inkscape"
   xmlns:sodipodi="http://sodipodi.sourceforge.net/DTD/sodipodi-0.dtd"
   xmlns="http://www.w3.org/2000/svg"
   xmlns:svg="http://www.w3.org/2000/svg">
  <sodipodi:namedview
     id="namedview1"
     pagecolor="#ffffff"
     bordercolor="#999999"
     borderopacity="1"
     inkscape:showpageshadow="2"
     inkscape:pageopacity="0"
     inkscape:pagecheckerboard="0"
     inkscape:deskcolor="#d1d1d1"
     inkscape:document-units="mm"
     inkscape:zoom="1.9578168"
     inkscape:cx="-17.110896"
     inkscape:cy="97.30226"
     inkscape:window-width="1902"
     inkscape:window-height="973"
     inkscape:window-x="0"
     inkscape:window-y="0"
     inkscape:window-maximized="0"
     inkscape:current-layer="layer1" />
  <defs
     id="defs1" />
  <g
     inkscape:label="Layer 1"
     inkscape:groupmode="layer"
     id="layer1"
     transform="translate(-109.18208,-58.064425)">
    <path
       id="path1"
       style="fill:#26aa11;fill-opacity:1;stroke:none;stroke-width:3"
       d="m 130.04283,58.064425 a 6.6219587,11.081646 0 0 0 -6.25595,7.520988 11.081646,6.6219587 45 0 0 -9.94668,-1.030428 11.081646,6.6219587 45 0 0 1.05213,9.979752 11.081646,6.6219587 0 0 0 -5.71025,5.78466 11.081646,6.6219587 0 0 0 6.14433,5.912817 6.6219587,11.081646 45 0 0 -0.68109,9.41958 6.6219587,11.081646 45 0 0 10.24743,-1.230415 6.6219587,11.081646 0 0 0 5.93039,6.205311 6.6219587,11.081646 0 0 0 5.86889,-5.994988 10.769595,6.4103254 41.326607 0 0 11.15643,1.821075 10.769595,6.4103254 41.326607 0 0 -2.44223,-11.06909 11.081646,6.6219587 0 0 0 5.86114,-5.829101 11.081646,6.6219587 0 0 0 -6.12521,-5.921603 6.4952103,11.013573 51.686994 0 0 1.33274,-9.630419 6.4952103,11.013573 51.686994 0 0 -10.31203,0.916739 6.6219587,11.081646 0 0 0 -6.12004,-6.854878 z m 0.54208,15.739091 a 7.0949564,6.4868174 0 0 1 7.09466,6.486942 7.0949564,6.4868174 0 0 1 -7.09466,6.486943 7.0949564,6.4868174 0 0 1 -7.09517,-6.486943 7.0949564,6.4868174 0 0 1 7.09517,-6.486942 z" />
  </g>
</svg>
