<?xml version="1.0" encoding="UTF-8" standalone="no"?>
<!-- Created with Inkscape (http://www.inkscape.org/) -->

<svg
   width="85.715538mm"
   height="95.510925mm"
   viewBox="0 0 85.715536 95.510923"
   version="1.1"
   id="svg1"
   inkscape:version="1.3 (0e150ed6c4, 2023-07-21)"
   sodipodi:docname="logs_icon.svg"
   xmlns:inkscape="http://www.inkscape.org/namespaces/inkscape"
   xmlns:sodipodi="http://sodipodi.sourceforge.net/DTD/sodipodi-0.dtd"
   xmlns="http://www.w3.org/2000/svg"
   xmlns:svg="http://www.w3.org/2000/svg">
  <sodipodi:namedview
     id="namedview1"
     pagecolor="#ffffff"
     bordercolor="#999999"
     borderopacity="1"
     inkscape:showpageshadow="2"
     inkscape:pageopacity="0"
     inkscape:pagecheckerboard="0"
     inkscape:deskcolor="#d1d1d1"
     inkscape:document-units="mm"
     inkscape:zoom="0.9789084"
     inkscape:cx="169.06587"
     inkscape:cy="221.67549"
     inkscape:window-width="1450"
     inkscape:window-height="1020"
     inkscape:window-x="334"
     inkscape:window-y="64"
     inkscape:window-maximized="0"
     inkscape:current-layer="g11-0-6"
     showgrid="false" />
  <defs
     id="defs1" />
  <g
     inkscape:label="Layer 1"
     inkscape:groupmode="layer"
     id="layer1"
     transform="translate(-57.993639,-133.22054)">
    <g
       id="g11-0-6"
       transform="rotate(3.8653438,-11.872848,475.92825)"
       style="stroke-width:0.5;stroke-dasharray:none">
      <g
         id="g5"
         transform="matrix(0.95789102,0.04350206,0.04350206,1.5988019,-5.1825465,-262.50528)">
        <path
           id="rect1"
           style="fill:#d4b654;fill-opacity:1;fill-rule:evenodd;stroke-width:0.122283;stroke-dasharray:none"
           d="m 92.912072,240.0121 -62.312286,4.53283 c 0,0 13.997636,33.58099 15.128044,51.21186 0.138851,2.16564 0.108774,4.60583 -0.04591,7.21183 l 60.35072,-4.07763 c 0.15626,-2.48289 0.20986,-4.81698 0.11522,-6.89435 C 105.33811,274.22442 92.912072,240.0121 92.912072,240.0121 Z" />
        <path
           style="fill:#0b0c02;fill-opacity:0.610282;stroke:none;stroke-width:2.18675;stroke-linecap:round;stroke-opacity:1;paint-order:markers stroke fill"
           id="path1"
           d="m 46.245919,255.67816 c 1.929297,-0.32704 3.850547,-0.70079 5.763081,-1.09021 1.220748,-0.20508 2.474544,-0.64111 3.739525,-0.52355 0.215879,0.02 0.421304,0.0765 0.631955,0.11471 1.255407,0.30873 3.882823,1.20033 -1.55152,-0.63208 -0.182755,-0.0617 0.355169,0.13867 0.530347,0.21123 0.319203,0.13223 0.63249,0.27212 0.949474,0.40723 1.008722,0.34212 3.055495,1.40539 4.710853,1.40896 1.472396,0.003 2.976896,-0.39437 4.381413,-0.71547 1.610615,-0.31704 3.213753,-0.88711 4.886467,-0.95702 0.295914,-0.0124 0.590712,0.0113 0.886065,0.017 2.014298,0.27834 3.942398,0.82118 5.873973,1.30769 2.113711,0.50697 4.369594,0.47746 6.582381,0.53781 3.131173,0.0551 6.272083,-0.10523 9.406535,-0.23189 0,0 -2.986063,-1.39396 -2.986063,-1.39396 v 0 c -3.161205,0.14634 -6.329937,0.27342 -9.48423,0.1621 -2.217716,-0.0843 -4.475399,-0.0878 -6.581184,-0.63046 -1.950763,-0.48578 -3.900864,-1.05444 -5.961873,-1.24126 -0.30857,0.006 -0.617721,-0.005 -0.92573,0.0183 -1.663096,0.12595 -3.24287,0.68635 -4.847703,1.01829 -1.140582,0.24733 -2.287898,0.50408 -3.470264,0.56931 -0.300922,0.0166 -0.604047,0.0197 -0.90257,-10e-4 -0.249417,-0.0176 -0.945358,-0.21 -0.73319,-0.11398 0.900651,0.40757 1.88317,0.70699 2.824754,1.06049 -2.178803,-0.87809 -4.310196,-1.89262 -6.740143,-2.3543 -1.601093,-0.15462 -2.862237,0.19596 -4.401754,0.54781 -1.92476,0.39854 -3.869479,0.80814 -5.841771,0.99338 z" />
        <path
           style="fill:#0b0c02;fill-opacity:0.610282;stroke:none;stroke-width:2.18675;stroke-linecap:round;stroke-dasharray:none;stroke-opacity:1;paint-order:markers stroke fill"
           id="path1-68"
           d="m 52.996677,277.72793 c 1.929297,-0.32704 3.850547,-0.70079 5.763081,-1.09021 1.220748,-0.20508 2.474544,-0.64111 3.739525,-0.52355 0.215879,0.02 0.421304,0.0765 0.631955,0.11471 1.255407,0.30873 3.882823,1.20033 -1.55152,-0.63208 -0.182755,-0.0617 0.355169,0.13867 0.530347,0.21123 0.319203,0.13223 0.63249,0.27212 0.949474,0.40723 1.008722,0.34212 3.055495,1.40539 4.710853,1.40896 1.472396,0.003 2.976896,-0.39437 4.381413,-0.71547 1.610615,-0.31704 3.213753,-0.88711 4.886467,-0.95702 0.295914,-0.0124 0.590712,0.0113 0.886065,0.017 2.014298,0.27834 3.942398,0.82118 5.873973,1.30769 2.113711,0.50697 4.369594,0.47746 6.582381,0.53781 3.131173,0.0551 6.272085,-0.10523 9.406535,-0.23189 0,0 -2.98606,-1.39396 -2.98606,-1.39396 v 0 c -3.161208,0.14634 -6.32994,0.27342 -9.484233,0.1621 -2.217716,-0.0843 -4.475399,-0.0878 -6.581184,-0.63046 -1.950763,-0.48578 -3.900864,-1.05444 -5.961873,-1.24126 -0.30857,0.006 -0.617721,-0.005 -0.92573,0.0183 -1.663096,0.12595 -3.24287,0.68635 -4.847703,1.01829 -1.140582,0.24733 -2.287898,0.50408 -3.470264,0.56931 -0.300922,0.0166 -0.604047,0.0197 -0.90257,-10e-4 -0.249417,-0.0176 -0.945358,-0.21 -0.73319,-0.11398 0.900651,0.40757 1.88317,0.70699 2.824754,1.06049 -2.178803,-0.87809 -4.310196,-1.89262 -6.740143,-2.3543 -1.601093,-0.15462 -2.862237,0.19596 -4.401754,0.54781 -1.92476,0.39854 -3.869479,0.80814 -5.841771,0.99338 z" />
        <path
           style="fill:#0b0c02;fill-opacity:0.610282;stroke:none;stroke-width:2.537;stroke-linecap:round;stroke-opacity:1;paint-order:markers stroke fill"
           id="path2"
           d="m 50.746958,265.85753 c 3.246189,-0.6287 6.410432,-1.61464 9.617775,-2.41457 3.192257,-0.82855 6.454221,-1.28404 9.729774,-1.61271 4.286052,-0.41157 8.601653,-0.12932 12.89522,0.0101 3.453748,0.12231 6.905933,0.27667 10.360397,0.37888 0,0 -3.079079,-1.97261 -3.079079,-1.97261 v 0 c -3.422434,-0.0466 -6.840628,-0.19833 -10.261,-0.31809 -4.343953,-0.10728 -8.709408,-0.42902 -13.04556,-0.0492 -3.257979,0.34186 -6.498006,0.82029 -9.656104,1.72015 -3.264278,0.84299 -6.523087,1.85899 -9.893662,2.16494 z" />
        <path
           style="fill:#0b0c02;fill-opacity:0.610282;stroke:none;stroke-width:2.537;stroke-linecap:round;stroke-opacity:1;paint-order:markers stroke fill"
           id="path3"
           d="m 51.919736,272.22129 c 2.235221,-0.5971 4.474919,-1.18554 6.709018,-1.7907 3.321306,-0.99163 6.67081,-1.86632 10.076999,-2.51067 0.92582,-0.0981 1.858429,-0.40185 2.800129,-0.3483 1.192208,0.0678 2.339446,0.59155 3.429183,1.01897 2.537646,1.08452 5.059139,2.20206 7.568728,3.34901 0.814814,0.3161 1.714287,0.72824 2.616608,0.67976 0.494316,-0.0265 2.008896,-0.33205 2.37437,-0.4007 2.171197,-0.45364 4.334019,-0.94954 6.478405,-1.51634 0,0 -3.177489,-1.90827 -3.177489,-1.90827 v 0 c -2.126405,0.60531 -4.279237,1.11896 -6.462085,1.47909 -0.913061,0.12239 -1.557409,0.25774 -2.454622,0.22479 -0.872008,-0.032 -1.705113,-0.42504 -2.497573,-0.74174 -2.481636,-1.12006 -4.984884,-2.18968 -7.486651,-3.26411 -1.043448,-0.3895 -1.64299,-0.66794 -2.721912,-0.87429 -1.233176,-0.23585 -2.453568,0.13676 -3.657259,0.35692 -3.363227,0.73146 -6.677095,1.65597 -9.989397,2.58772 -2.315269,0.58594 -4.638631,1.14752 -6.980075,1.61665 z" />
      </g>
      <path
         id="rect3"
         style="fill:#856e23;fill-opacity:1;fill-rule:evenodd;stroke-width:0.14054"
         d="m 90.013001,134.80961 29.173669,-7.20102 1.84893,7.49053 -29.173688,7.20102 -10.237716,-1.65557 z"
         sodipodi:nodetypes="cccccc" />
      <path
         style="fill:#857e23;fill-opacity:1;stroke:#d4b654;stroke-width:0.358011;stroke-linecap:round;stroke-dasharray:none;stroke-opacity:1;paint-order:markers stroke fill"
         d="m 86.758419,128.09944 c 1.820985,7.25159 1.785177,7.254 1.785177,7.254"
         id="path5" />
    </g>
  </g>
</svg>
