<?xml version="1.0" encoding="UTF-8" standalone="no"?>
<!-- Created with Inkscape (http://www.inkscape.org/) -->

<svg
   width="32.381111mm"
   height="36.620991mm"
   viewBox="0 0 32.381111 36.620991"
   version="1.1"
   id="svg1"
   inkscape:version="1.3 (0e150ed6c4, 2023-07-21)"
   sodipodi:docname="pyro.svg"
   xmlns:inkscape="http://www.inkscape.org/namespaces/inkscape"
   xmlns:sodipodi="http://sodipodi.sourceforge.net/DTD/sodipodi-0.dtd"
   xmlns="http://www.w3.org/2000/svg"
   xmlns:svg="http://www.w3.org/2000/svg">
  <sodipodi:namedview
     id="namedview1"
     pagecolor="#ffffff"
     bordercolor="#999999"
     borderopacity="1"
     inkscape:showpageshadow="2"
     inkscape:pageopacity="0"
     inkscape:pagecheckerboard="0"
     inkscape:deskcolor="#d1d1d1"
     inkscape:document-units="mm"
     inkscape:zoom="1.9578168"
     inkscape:cx="-56.951192"
     inkscape:cy="68.188198"
     inkscape:window-width="1902"
     inkscape:window-height="973"
     inkscape:window-x="0"
     inkscape:window-y="0"
     inkscape:window-maximized="0"
     inkscape:current-layer="layer1" />
  <defs
     id="defs1" />
  <g
     inkscape:label="Layer 1"
     inkscape:groupmode="layer"
     id="layer1"
     transform="translate(-119.84081,-65.967971)">
    <path
       id="path1"
       style="fill:#e60000;fill-opacity:1;stroke-width:0.306637;stroke-opacity:0.879433"
       d="m 134.70485,65.969977 c -3.30686,-0.118554 -7.8069,5.039124 -9.69945,9.60953 0.0982,-2.531855 -2.91579,-0.267173 -3.90059,3.532948 -0.73327,2.829539 -1.264,6.471478 -1.264,9.506181 0,7.715338 6.81004,13.970324 15.21007,13.970324 8.40003,0 17.0686,-5.620023 17.0686,-13.335365 0,-0.505194 0.41467,-8.811304 -0.42456,-6.768449 -4.66531,11.356113 0.005,-4.138373 -0.74186,-6.734455 -1.39041,-4.830241 -5.85859,-6.771296 -7.40051,-4.790726 -1.61056,2.068737 4.30791,4.631814 -0.1454,6.54506 -4.63821,1.992681 -0.91881,-5.12911 -1.85013,-5.547701 -1.98235,-0.890971 -9.59085,16.95057 -8.7524,11.655695 0.12292,-0.776207 0.95407,-6.135792 -0.19203,-8.946378 -0.35983,-0.882417 -0.18363,2.384691 -1.22642,1.105296 -2.87209,-3.52376 6.67434,-9.681656 3.31868,-9.80196 z"
       sodipodi:nodetypes="scssssccsscssss" />
  </g>
</svg>
